# xmcd
#
# Track frame offsets: 
#        150
#        21371
#        44551
#        65734
#        90583
#        115908
#        133382
#        151691
#        172079
#        190929
#        212951
#        241113
#
# Disc length: 3607 seconds
#
# Revision: 1
# Processed by: cddbd v1.5.2PL0 Copyright (c) Steve Scherf et al.
# Submitted via: ExactAudioCopy v1.3
#
DISCID=ae0e150c
DTITLE=San Juan Music Group - Colours Of Lounge - Asian Oriental Loung
DTITLE=e
DYEAR=2002
DGENRE=Ambient
TTITLE0=Nara
TTITLE1=Vishnu's Fire
TTITLE2=The Swan
TTITLE3=Transperancy
TTITLE4=Ramacharaka's Prophecy
TTITLE5=Holy Mountains
TTITLE6=Cherry Blossom Melody
TTITLE7=Elusive Oasis
TTITLE8=Scent Of Water
TTITLE9=Blossom
TTITLE10=Unfolding Spirit
TTITLE11=Miracle Of Misery
EXTD=YEAR: 2002
EXTT0=
EXTT1=
EXTT2=
EXTT3=
EXTT4=
EXTT5=
EXTT6=
EXTT7=
EXTT8=
EXTT9=
EXTT10=
EXTT11=
PLAYORDER=
